PathFileType	4	(X/Y/Z)	Patient4_TMGait_0pt2_02_right_20.trc.trc
DataRate	CameraRate	NumFrames	NumMarkers	Units	OrigDataRate	OrigDataStartFrame	OrigNumFrames
45.602605863192	45.602605863192	4	33	mm	45.602605863192	106	       141
Frame#	Time	R.Midfoot.Superior			Sacral			L.Shoulder			Chest			R.Shoulder			Neck			R.ASIS			L.ASIS			R.Thigh.Superior			R.Thigh.Lateral			R.Thigh.Inferior			R.Patella			L.Thigh.Superior			L.Thigh.Lateral			L.Thigh.Inferior			L.Patella			L.Shank.Superior			L.Shank.Lateral			L.Shank.Inferior			R.Shank.Superior			R.Shank.Lateral			R.Shank.Inferior			R.Heel			R.Midfoot.Lateral			R.Toe			L.Heel			L.Midfoot.Lateral			L.Midfoot.Superior			L.Toe			L.Elbow			L.Wrist			R.Elbow			R.Wrist			
		X1	Y1	Z1	X2	Y2	Z2	X3	Y3	Z3	X4	Y4	Z4	X5	Y5	Z5	X6	Y6	Z6	X7	Y7	Z7	X8	Y8	Z8	X9	Y9	Z9	X10	Y10	Z10	X11	Y11	Z11	X12	Y12	Z12	X13	Y13	Z13	X14	Y14	Z14	X15	Y15	Z15	X16	Y16	Z16	X17	Y17	Z17	X18	Y18	Z18	X19	Y19	Z19	X20	Y20	Z20	X21	Y21	Z21	X22	Y22	Z22	X23	Y23	Z23	X24	Y24	Z24	X25	Y25	Z25	X26	Y26	Z26	X27	Y27	Z27	X28	Y28	Z28	X29	Y29	Z29	X30	Y30	Z30	X31	Y31	Z31	X32	Y32	Z32	X33	Y33	Z33	

106	46.562500000000	1013.470172828715	173.079616336993	610.901077862331	923.441680966447	975.234293933985	412.341826378221	1103.187530145949	1418.392343743034	247.940811467553	1196.021173162999	1344.518368961613	411.992453932073	1102.033282923240	1407.324486609649	584.185705258050	1075.501445773898	1473.288946317668	407.756650290156	1155.160804339559	923.906016431470	532.975345507156	1146.001939779550	943.187071728707	259.857388090186	1239.983822824522	747.554637903210	502.837351408780	1199.554286720400	630.289016296033	580.714470124979	1285.545418631500	585.750419354115	498.923972880805	1300.095374975339	471.245985824317	526.553228320848	1217.908604940139	741.864518623196	306.574828893910	1153.941894385269	607.191271643693	253.140430614055	1244.339433378017	547.006652602006	328.463639943807	1252.896615747035	471.475591265057	340.067694417606	1210.028954957400	394.025943019282	335.463703384385	1103.514345424827	294.778344771697	284.562035807759	1126.642899345253	180.051681624346	361.384499231262	1214.438443011052	405.689285295720	546.688144179427	1088.827142230089	390.482305675162	612.933756582931	1059.202581616833	279.239404602324	578.170934702713	847.785072190913	235.912670261678	560.130738070337	903.513013960456	184.795532636084	642.438075448275	1071.149569491992	61.251522932989	654.021704689438	974.467833956456	39.387072586761	401.544121040534	1048.537838756209	36.738056226222	321.104124074989	1132.765674379404	95.430635091067	350.145797595748	1260.386281866094	42.625047354408	319.526658798653	1204.654883940216	1093.403292768511	102.007977998125	1410.273448028959	931.816586798692	125.012382793451	1042.281201930790	1053.143213352418	677.679766537817	1091.104225655418	798.106041448856	688.001657050146	
107	46.584428571429	1029.698613967909	168.291659366339	611.379786266350	922.081593278802	975.190739519832	409.157462808868	1104.668188341243	1419.009945704478	248.631740123958	1194.439981122658	1344.802701303446	414.088492057481	1097.206586689969	1407.042821738288	584.694805410128	1074.193848181636	1473.416246132940	408.127298950988	1152.341775532909	924.254128406582	533.182899151359	1146.882971991717	943.523843056876	259.693626964809	1238.959177559286	749.579274146358	503.427780716047	1199.647457007255	632.108044457317	581.362534506524	1286.211416250725	588.462460468030	499.799679981182	1302.797321177257	475.056515818682	527.792757719885	1217.258984967564	741.310112057771	307.281760700616	1152.792585533320	606.984053127616	253.182316788010	1241.777699441691	546.326415690600	329.591348698691	1249.803476421781	470.897555357710	341.395878131591	1206.605406664639	393.586987089740	336.228873073682	1100.118978804027	294.583828150883	284.676157407874	1122.566230719555	179.792148020141	361.636241764467	1219.635051283228	407.300534737290	547.787368538430	1094.963840024033	387.186642454517	613.302154452327	1070.560179502495	275.020920473878	578.671248634209	862.240216014493	221.660363387446	559.401921555315	919.873529822716	174.494100190935	642.369866119801	1092.521918064064	60.768381674661	655.798499158231	969.996071591850	39.347523954395	401.457408695706	1044.126742523290	36.699877109736	321.020420362507	1128.338054597075	95.353942439592	350.185177386602	1255.971961523604	42.688273686016	319.522868333755	1212.257783919793	1097.222846955431	101.379286908887	1426.981232520632	947.747529485286	127.243683927150	1019.761806579829	1056.673185401753	675.403739378530	1047.899886941091	797.836597235900	684.242182826363	
108	46.606357142857	1048.943810998150	161.797444839851	611.996835785878	920.603779052667	976.319877326610	406.121928548293	1106.889089738860	1420.369589738245	249.576687333195	1193.090932243759	1345.870977373845	416.626531297978	1092.370024540912	1407.991973562055	585.226573462661	1073.256786069382	1474.446676828892	408.548348389536	1148.973259871996	925.386874531995	534.040482022052	1147.795586890466	944.569532574424	260.243631479606	1236.753663750648	752.043673178750	504.767887652539	1197.932778869081	634.383654861160	582.600033656180	1284.991980650590	591.408887216684	501.428674370827	1303.581293382761	479.544583448813	529.724569814905	1215.735919482618	741.139042640456	308.515326455405	1150.347463777774	607.528076719020	253.379318896791	1237.621839034434	546.055347738613	330.789530474306	1244.913363497928	470.863513993681	342.695955835273	1201.699345308275	393.776174753132	336.888379396684	1095.612212162375	294.643500432639	284.746584773724	1117.973260232415	179.862743137472	361.819067720916	1223.819559235398	409.226558660218	549.434176076407	1100.990306561265	382.479899042499	614.429693907740	1083.299005305508	269.492520360885	579.621312583706	879.550599100380	203.465488817316	559.413681511598	939.709623933657	160.854904001386	642.656471129619	1118.184545925343	59.778718788373	657.041365174648	965.493007919966	39.283644233409	401.376073827284	1039.685357051774	36.651237577036	320.933308010678	1123.865055182536	95.325702784254	350.166388320221	1251.523177281384	42.813002649864	319.524915139284	1220.444842884778	1102.085947767198	101.000383283197	1443.043818159304	964.640254861292	129.846600396234	998.188554186277	1062.336561672401	673.145546326304	1007.920521018096	801.493443321883	680.545367835924	
109	46.628285714286	1070.755255221908	154.315808626181	612.762922948728	919.022164740815	978.520328985278	403.295816765941	1109.771062067043	1422.369206136770	250.775999528272	1191.951967977737	1347.635748814641	419.558340982928	1087.588421684134	1410.084103888192	585.768158457718	1072.671778818443	1476.289510096466	409.017800221172	1145.099736149094	927.230154050251	535.517512000717	1148.690007148392	946.230851647633	261.487766568439	1233.431185827681	754.847397589148	506.778668702738	1194.521985325085	637.009805370527	584.380449158811	1281.996350459721	594.487718077569	503.740029238917	1302.542389976821	484.574215914594	532.243524601673	1213.360620795819	741.302818105514	310.215997916211	1146.682649754607	608.746357472227	253.716865723790	1231.986977472591	546.149298129369	332.035194102583	1238.360627981002	471.322377130713	343.937941124819	1195.429967841787	394.544677256327	337.428691696606	1090.082908780337	294.937815547163	284.759683920820	1112.896986233074	180.240668393464	361.933349321975	1226.999178389254	411.467475911036	551.549940663346	1107.000769909228	376.716949913821	616.288340985159	1097.207441250354	263.186501549341	581.003683135045	899.552288148234	182.581705719716	560.217244036297	962.689321780985	144.960072051304	643.320926265736	1147.280652627157	58.799923079926	657.698982699221	960.961135618383	39.198292173677	401.299110251292	1035.212498502744	36.591001705564	320.843304275072	1119.345888868430	95.344589472285	350.093581559895	1247.038999592923	42.999599011493	319.534646378044	1229.251111158691	1107.904055665479	100.943301539185	1458.521693915624	982.303521078618	132.880693493989	977.731576531311	1069.844006058332	670.890330175137	971.693668953030	808.340537870265	676.989326805937	
